<svg width="40" height="40" viewBox="0 0 40 40" fill="none" xmlns="http://www.w3.org/2000/svg">
    <g clip-path="url(#clip0_13397_101038)">
        <path d="M20 40C31.0457 40 40 31.0457 40 20C40 8.95431 31.0457 0 20 0C8.95431 0 0 8.95431 0 20C0 31.0457 8.95431 40 20 40Z" fill="#FF0002"/>
        <path d="M29.7307 17.0497C29.1255 16.4256 28.265 16.0852 27.2153 16.0852C25.9104 16.0852 24.908 16.6147 24.3312 17.6076V12.6809H21.3052V26.1845H24.3312V21.4374C24.3312 20.331 24.5581 19.6218 24.8986 19.2057C25.2295 18.7897 25.6929 18.6289 26.1941 18.6289C26.6385 18.6289 26.9884 18.7707 27.2343 19.0261C27.4801 19.2908 27.622 19.6975 27.622 20.2648V26.175H30.648V19.6691C30.648 18.5627 30.3265 17.6644 29.7307 17.0497Z" fill="white"/>
        <path d="M16.1987 16.0852C14.8938 16.0852 13.8914 16.6147 13.3146 17.6076V12.6809H10.2886V26.1845H13.3146V21.4374C13.3146 20.331 13.5415 19.6218 13.882 19.2057C14.2129 18.7897 14.6763 18.6289 15.1775 18.6289C15.6219 18.6289 15.9718 18.7707 16.2177 19.0261C16.4635 19.2908 16.6054 19.6975 16.6054 20.2648V26.175H19.6314V19.6691C19.6314 18.5627 19.3099 17.6644 18.7046 17.0402C18.1089 16.4161 17.2484 16.0852 16.1987 16.0852Z" fill="white"/>
    </g>
    <defs>
        <clipPath id="clip0_13397_101038">
            <rect width="40" height="40" fill="white"/>
        </clipPath>
    </defs>
</svg>
